PathFileType	4	(X/Y/Z)	 2.6Hz3min.trc
DataRate	CameraRate	NumFrames	NumMarkers	Units	OrigDataRate	OrigDataStartFrame	OrigNumFrames
200	200	7	43	m	200	1	999
Frame#	Time	C7			LSH			RSH			MAN			RASI			LASI			HIPR			HIPL			RPSI			LPSI			COX			RTHI1			RTHI2			RTHI3			RTHI4			RLKN			RMKN			RSHA1			RSHA2			RSHA3			RSHA4			RLMAL			RMMAL			RHEEL			RMET5			RMET1			RTOE			LTHI1			LTHI2			LTHI3			LTHI4			LLKN			LMKN			LSHA1			LSHA2			LSHA3			LSHA4			LLMAL			LMMAL			LHEEL			LMET5			LMET1			LTOE			
		X1	Y1	Z1	X2	Y2	Z2	X3	Y3	Z3	X4	Y4	Z4	X5	Y5	Z5	X6	Y6	Z6	X7	Y7	Z7	X8	Y8	Z8	X9	Y9	Z9	X10	Y10	Z10	X11	Y11	Z11	X12	Y12	Z12	X13	Y13	Z13	X14	Y14	Z14	X15	Y15	Z15	X16	Y16	Z16	X17	Y17	Z17	X18	Y18	Z18	X19	Y19	Z19	X20	Y20	Z20	X21	Y21	Z21	X22	Y22	Z22	X23	Y23	Z23	X24	Y24	Z24	X25	Y25	Z25	X26	Y26	Z26	X27	Y27	Z27	X28	Y28	Z28	X29	Y29	Z29	X30	Y30	Z30	X31	Y31	Z31	X32	Y32	Z32	X33	Y33	Z33	X34	Y34	Z34	X35	Y35	Z35	X36	Y36	Z36	X37	Y37	Z37	X38	Y38	Z38	X39	Y39	Z39	X40	Y40	Z40	X41	Y41	Z41	X42	Y42	Z42	X43	Y43	Z43	
1	0.0050	-0.253055	1.465902	-0.526554	-0.178819	1.432918	-0.729878	-0.173019	1.417355	-0.340351	-0.119473	1.374306	-0.536180	-0.137181	0.949398	-0.416263	-0.137240	0.960480	-0.666078	-0.227575	1.003328	-0.375856	-0.220685	1.000236	-0.701200	-0.321292	0.987840	-0.487354	-0.321743	0.979681	-0.587932	-0.326828	0.978931	-0.536369	-0.167372	0.681363	-0.334298	-0.147253	0.624775	-0.334498	-0.085693	0.642758	-0.344237	-0.097847	0.703104	-0.344219	-0.112553	0.442761	-0.343832	-0.106065	0.413272	-0.453824	-0.238734	0.296679	-0.326151	-0.260549	0.261077	-0.335756	-0.190439	0.272221	-0.324088	-0.206445	0.234930	-0.328512	-0.323497	0.098775	-0.350366	-0.284445	0.092060	-0.430097	-0.374185	0.083649	-0.404465	-0.230155	0.034750	-0.299510	-0.170866	0.046472	-0.372260	-0.146385	0.037448	-0.369978	-0.174616	0.685787	-0.736123	-0.154979	0.627545	-0.736667	-0.092011	0.641934	-0.733360	-0.103790	0.700839	-0.733358	-0.120295	0.438624	-0.728771	-0.122700	0.416011	-0.616351	-0.247129	0.288959	-0.744884	-0.268080	0.255324	-0.736591	-0.214557	0.226841	-0.734884	-0.198254	0.266675	-0.745182	-0.329557	0.099147	-0.729065	-0.306247	0.108489	-0.644287	-0.390020	0.094922	-0.679022	-0.237637	0.035101	-0.764171	-0.187080	0.046252	-0.686689	-0.160238	0.038298	-0.694184	
2	0.0100	-0.252736	1.462718	-0.526806	-0.178858	1.429027	-0.730267	-0.173702	1.413498	-0.340419	-0.119004	1.370440	-0.536256	-0.137864	0.944603	-0.415290	-0.137622	0.955386	-0.666868	-0.229416	0.997885	-0.375429	-0.221567	0.994715	-0.701634	-0.322524	0.983360	-0.488002	-0.322894	0.974915	-0.587770	-0.327634	0.974873	-0.536562	-0.167832	0.678405	-0.333874	-0.147371	0.621924	-0.334126	-0.085836	0.640385	-0.343118	-0.098376	0.700640	-0.343159	-0.111150	0.440098	-0.343526	-0.104115	0.411029	-0.453474	-0.237979	0.294788	-0.326540	-0.259825	0.259096	-0.336472	-0.189655	0.269842	-0.324537	-0.205774	0.232697	-0.329077	-0.323360	0.097306	-0.351397	-0.284242	0.090582	-0.431151	-0.374183	0.082157	-0.406016	-0.230326	0.034877	-0.299792	-0.170774	0.046452	-0.372352	-0.146202	0.037373	-0.369818	-0.175591	0.682764	-0.736501	-0.155698	0.624606	-0.737164	-0.092687	0.639384	-0.734478	-0.104819	0.698204	-0.734367	-0.119907	0.435701	-0.729201	-0.121249	0.413156	-0.617012	-0.247096	0.286495	-0.744296	-0.268216	0.253098	-0.735933	-0.214561	0.224399	-0.734249	-0.198228	0.264137	-0.744740	-0.330267	0.097160	-0.727591	-0.306332	0.106383	-0.642909	-0.390395	0.092762	-0.676932	-0.238046	0.035218	-0.763918	-0.187054	0.046171	-0.686714	-0.160118	0.038300	-0.694376	
3	0.0150	-0.252433	1.459640	-0.527052	-0.178913	1.425247	-0.730663	-0.174382	1.409748	-0.340459	-0.118568	1.366713	-0.536332	-0.138523	0.939893	-0.414280	-0.137986	0.950381	-0.667693	-0.231322	0.992501	-0.374991	-0.222516	0.989255	-0.702086	-0.323708	0.979117	-0.488614	-0.324008	0.970419	-0.587636	-0.328436	0.971041	-0.536764	-0.168299	0.675543	-0.333487	-0.147492	0.619164	-0.333791	-0.085982	0.638100	-0.342030	-0.098908	0.698265	-0.342120	-0.109763	0.437575	-0.343220	-0.102155	0.408865	-0.453107	-0.237222	0.292988	-0.326946	-0.259140	0.257250	-0.337192	-0.188941	0.267605	-0.324973	-0.205143	0.230582	-0.329568	-0.323215	0.095947	-0.352407	-0.284010	0.089188	-0.432169	-0.374145	0.080754	-0.407517	-0.230495	0.035009	-0.300075	-0.170676	0.046431	-0.372440	-0.146013	0.037292	-0.369665	-0.176570	0.679841	-0.736852	-0.156435	0.621755	-0.737639	-0.093387	0.636906	-0.735572	-0.105847	0.695657	-0.735356	-0.119597	0.432905	-0.729630	-0.119826	0.410418	-0.617654	-0.247111	0.284116	-0.743663	-0.268391	0.250949	-0.735225	-0.214595	0.222047	-0.733621	-0.198253	0.261691	-0.744294	-0.330925	0.095476	-0.725892	-0.306355	0.104339	-0.641526	-0.390729	0.090661	-0.674805	-0.238460	0.035350	-0.763643	-0.187009	0.046099	-0.686733	-0.159993	0.038303	-0.694568	
4	0.0200	-0.252151	1.456859	-0.527285	-0.178968	1.421799	-0.731055	-0.175014	1.406275	-0.340474	-0.118225	1.363399	-0.536397	-0.139119	0.935404	-0.413142	-0.138295	0.945602	-0.668632	-0.233372	0.987273	-0.374526	-0.223602	0.983966	-0.702592	-0.324791	0.975403	-0.489253	-0.325002	0.966483	-0.587468	-0.329161	0.967830	-0.536955	-0.168828	0.673020	-0.333206	-0.147697	0.616777	-0.333538	-0.086174	0.636114	-0.340982	-0.099502	0.696183	-0.341114	-0.108426	0.435433	-0.342926	-0.100109	0.406942	-0.452701	-0.236524	0.291545	-0.327395	-0.258542	0.255796	-0.337989	-0.188326	0.265855	-0.325373	-0.204558	0.228918	-0.330075	-0.323052	0.094909	-0.353375	-0.283641	0.088009	-0.433121	-0.374033	0.079622	-0.408989	-0.230651	0.035162	-0.300371	-0.170540	0.046382	-0.372546	-0.145891	0.037304	-0.369586	-0.177610	0.677341	-0.737115	-0.157288	0.619315	-0.738050	-0.094198	0.634754	-0.736644	-0.106919	0.693453	-0.736318	-0.119484	0.430412	-0.730058	-0.118409	0.408011	-0.618268	-0.247283	0.282081	-0.742893	-0.268612	0.249003	-0.734291	-0.214739	0.219967	-0.733021	-0.198455	0.259578	-0.743838	-0.331543	0.093855	-0.724219	-0.306242	0.102508	-0.640053	-0.390961	0.088722	-0.672503	-0.238905	0.035510	-0.763309	-0.186931	0.046034	-0.686755	-0.159852	0.038317	-0.694781	
5	0.0250	-0.251907	1.454380	-0.527500	-0.179022	1.418668	-0.731434	-0.175572	1.403121	-0.340468	-0.117958	1.360483	-0.536460	-0.139633	0.931208	-0.411900	-0.138560	0.941143	-0.669652	-0.235552	0.982274	-0.374032	-0.224864	0.978941	-0.703139	-0.325748	0.972280	-0.489824	-0.325875	0.963226	-0.587300	-0.329815	0.965182	-0.537118	-0.169344	0.670788	-0.333049	-0.147894	0.614658	-0.333376	-0.086370	0.634384	-0.340018	-0.100091	0.694362	-0.340174	-0.107168	0.433660	-0.342627	-0.098052	0.405246	-0.452269	-0.235852	0.290382	-0.327852	-0.258011	0.254681	-0.338753	-0.187800	0.264448	-0.325682	-0.204056	0.227613	-0.330476	-0.322908	0.094161	-0.354299	-0.283210	0.087054	-0.433952	-0.373851	0.078773	-0.410335	-0.230785	0.035307	-0.300661	-0.170369	0.046343	-0.372642	-0.145753	0.037311	-0.369534	-0.178654	0.675130	-0.737311	-0.158165	0.617156	-0.738404	-0.095064	0.632826	-0.737647	-0.107993	0.691496	-0.737234	-0.119556	0.428251	-0.730473	-0.117042	0.405927	-0.618824	-0.247558	0.280295	-0.742027	-0.268903	0.247284	-0.733264	-0.214955	0.218145	-0.732460	-0.198765	0.257732	-0.743394	-0.332088	0.092466	-0.722502	-0.305988	0.100872	-0.638574	-0.391090	0.086978	-0.670205	-0.239339	0.035694	-0.762934	-0.186804	0.046004	-0.686760	-0.159701	0.038336	-0.694985	
6	0.0300	-0.251700	1.452251	-0.527705	-0.179034	1.415941	-0.731788	-0.176056	1.400367	-0.340452	-0.117776	1.357986	-0.536527	-0.140064	0.927386	-0.410565	-0.138746	0.937093	-0.670724	-0.237810	0.977646	-0.373521	-0.226263	0.974360	-0.703706	-0.326568	0.969774	-0.490267	-0.326610	0.960692	-0.587195	-0.330430	0.963057	-0.537269	-0.169828	0.668876	-0.332999	-0.148067	0.612853	-0.333285	-0.086551	0.632953	-0.339164	-0.100646	0.692840	-0.339327	-0.105978	0.432274	-0.342342	-0.096033	0.403811	-0.451824	-0.235199	0.289520	-0.328300	-0.257532	0.253926	-0.339475	-0.187340	0.263436	-0.325907	-0.203606	0.226682	-0.330785	-0.322763	0.093728	-0.355120	-0.282736	0.086365	-0.434647	-0.373614	0.078221	-0.411483	-0.230899	0.035444	-0.300946	-0.170195	0.046302	-0.372716	-0.145634	0.037342	-0.369513	-0.179692	0.673264	-0.737429	-0.159065	0.615335	-0.738682	-0.095966	0.631185	-0.738564	-0.109058	0.689843	-0.738070	-0.119788	0.426482	-0.730860	-0.115757	0.404211	-0.619323	-0.247932	0.278806	-0.741116	-0.269237	0.245811	-0.732193	-0.215229	0.216626	-0.731958	-0.199176	0.256199	-0.742975	-0.332544	0.091267	-0.720884	-0.305637	0.099439	-0.637148	-0.391124	0.085465	-0.667980	-0.239760	0.035887	-0.762545	-0.186660	0.045984	-0.686760	-0.159558	0.038352	-0.695180	
7	0.0350	-0.251544	1.450507	-0.527907	-0.178993	1.413649	-0.732112	-0.176416	1.398035	-0.340487	-0.117667	1.355912	-0.536601	-0.140395	0.924015	-0.409169	-0.138856	0.933561	-0.671787	-0.240030	0.973543	-0.373018	-0.227717	0.970441	-0.704256	-0.327251	0.967858	-0.490571	-0.327201	0.958838	-0.587141	-0.330993	0.961379	-0.537386	-0.170231	0.667284	-0.333043	-0.148179	0.611365	-0.333249	-0.086686	0.631807	-0.338448	-0.101115	0.691613	-0.338604	-0.104870	0.431243	-0.342075	-0.094125	0.402648	-0.451387	-0.234553	0.288928	-0.328681	-0.257073	0.253478	-0.340055	-0.186913	0.262756	-0.326065	-0.203199	0.226057	-0.330956	-0.322632	0.093567	-0.355807	-0.282271	0.085940	-0.435168	-0.373327	0.077970	-0.412359	-0.230989	0.035552	-0.301207	-0.170030	0.046265	-0.372760	-0.145509	0.037372	-0.369505	-0.180686	0.671729	-0.737484	-0.159943	0.613841	-0.738872	-0.096864	0.629828	-0.739371	-0.110088	0.688487	-0.738819	-0.120129	0.425099	-0.731208	-0.114590	0.402850	-0.619759	-0.248346	0.277625	-0.740250	-0.269604	0.244631	-0.731182	-0.215520	0.215413	-0.731539	-0.199624	0.254974	-0.742612	-0.332904	0.090299	-0.719438	-0.305264	0.098210	-0.635881	-0.391089	0.084220	-0.665991	-0.240145	0.036063	-0.762168	-0.186514	0.045972	-0.686756	-0.159429	0.038362	-0.695353	
